<svg xmlns="http://www.w3.org/2000/svg" viewBox="0 0 127 127"><defs><style>.cls-1{isolation:isolate;}.cls-2{mix-blend-mode:multiply;}.cls-3{fill:#e2b596;}.cls-4{fill:#ce8f7c;}.cls-5{fill:#32353d;}.cls-6,.cls-7{fill:none;}.cls-6,.cls-7,.cls-9{stroke:#000;}.cls-10,.cls-6,.cls-7,.cls-9{stroke-linecap:round;stroke-linejoin:round;}.cls-6{stroke-width:4px;}.cls-7{stroke-width:2px;}.cls-8{opacity:0.36;}.cls-10{fill:#fff;stroke:#fff;}</style></defs><title>batman</title><g class="cls-1"><g id="icons" class="cls-2"><g id="_Group_" data-name="&lt;Group&gt;"><path class="cls-3" d="M74.32,82.82,103.49,79v1.17c0,.44.01.89.01,1.33,0,.48,0,.96-.02,1.43-.35,22.38-9.27,32.25-34.45,33.44-1.76.09-3.6.13-5.53.13a79.685,79.685,0,0,1-17.83-1.69C29.39,111.03,23.5,100.68,23.5,81.5c0-.43.01-.87.01-1.31V79l29.17,3.82a7.879,7.879,0,0,1,4.78,2.52l4.6,5.02a1.945,1.945,0,0,0,2.88,0l4.6-5.02A7.879,7.879,0,0,1,74.32,82.82Z"/><path class="cls-4" d="M103.49,79V72.215c0,.239,0,.48-.01.715-.35,22.38-9.27,32.25-34.45,33.44-1.76.09-3.6.13-5.53.13a79.688,79.688,0,0,1-17.83-1.69C29.683,101.1,23.719,91.044,23.51,72.52v7.67c0,.44-.01.88-.01,1.31,0,19.18,5.89,29.53,22.17,33.31A79.688,79.688,0,0,0,63.5,116.5c1.93,0,3.77-.04,5.53-.13,25.18-1.19,34.1-11.06,34.45-33.44.02-.47.02-.95.02-1.43,0-.44-.01-.89-.01-1.33Z"/><path class="cls-5" d="M103.49,78.5V79L74.32,82.82a7.879,7.879,0,0,0-4.78,2.52l-4.6,5.02a1.945,1.945,0,0,1-2.88,0l-4.6-5.02a7.879,7.879,0,0,0-4.78-2.52L23.51,79V20.5l14.2,14.2c4.52-3.89,10.44-6.64,18.2-7.71a56.406,56.406,0,0,1,7.59-.49c1.64,0,3.21.06,4.72.18a44.637,44.637,0,0,1,9.16,1.65,31.912,31.912,0,0,1,11.9,6.38L103.49,20.5Z"/><path class="cls-6" d="M103.49,79V20.5L89.28,34.71a31.912,31.912,0,0,0-11.9-6.38,44.637,44.637,0,0,0-9.16-1.65c-1.51-.12-3.08-.18-4.72-.18a56.406,56.406,0,0,0-7.59.49c-7.76,1.07-13.68,3.82-18.2,7.71L23.51,20.5V80.19c0,.44-.01.88-.01,1.31,0,19.18,5.89,29.53,22.17,33.31A79.685,79.685,0,0,0,63.5,116.5c1.93,0,3.77-.04,5.53-.13,25.18-1.19,34.1-11.06,34.45-33.44.02-.47.02-.95.02-1.43,0-.44-.01-.89-.01-1.33Z"/><path class="cls-7" d="M103.5,79h-.01L74.32,82.82a7.879,7.879,0,0,0-4.78,2.52l-4.6,5.02a1.945,1.945,0,0,1-2.88,0l-4.6-5.02a7.879,7.879,0,0,0-4.78-2.52L23.51,79H23.5"/></g><g class="cls-8"><path d="M48.816,52.551a16.4,16.4,0,0,1,3.2,1.785,21.136,21.136,0,0,1,2.737,2.275,21.778,21.778,0,0,1,2.314,2.67,24.327,24.327,0,0,1,1.871,2.97.5.5,0,0,1-.855.516l-.013-.02a23.2,23.2,0,0,0-1.981-2.689,20.4,20.4,0,0,0-2.347-2.341,19.511,19.511,0,0,0-2.676-1.913,14.84,14.84,0,0,0-2.878-1.357l-.056-.018a1,1,0,1,1,.618-1.905Z"/><path d="M78.816,54.449a14.84,14.84,0,0,0-2.878,1.357,19.511,19.511,0,0,0-2.676,1.913,20.4,20.4,0,0,0-2.347,2.341,23.2,23.2,0,0,0-1.981,2.689l-.012.018a.5.5,0,0,1-.856-.515,24.327,24.327,0,0,1,1.871-2.97,21.778,21.778,0,0,1,2.314-2.67,21.134,21.134,0,0,1,2.737-2.275,16.394,16.394,0,0,1,3.2-1.785,1,1,0,1,1,.758,1.854l-.068.025Z"/><path d="M66.582,106.007l2.738-.256q1.357-.134,2.684-.341a26.764,26.764,0,0,0,2.628-.545c.879-.2,1.713-.52,2.61-.793l.038-.012a.506.506,0,0,1,.477.869,9.529,9.529,0,0,1-2.546,1.59,12.221,12.221,0,0,1-2.879.854,13.23,13.23,0,0,1-2.976.188,9.95,9.95,0,0,1-2.938-.567.508.508,0,0,1,.128-.983Z"/></g><path class="cls-9" d="M38.8,60,58,67.82C45.52,76.757,34.961,70.054,38.8,60Z"/><path class="cls-10" d="M46.781,69A5.78,5.78,0,0,1,41.8,66.825a4.787,4.787,0,0,1-.8-2.689L51,68.21A12.636,12.636,0,0,1,46.781,69Z"/><path class="cls-9" d="M88.2,60,69,67.82C81.48,76.757,92.039,70.054,88.2,60Z"/><path class="cls-10" d="M80.219,69A5.78,5.78,0,0,0,85.2,66.825a4.787,4.787,0,0,0,.8-2.689L76,68.21A12.636,12.636,0,0,0,80.219,69Z"/><path class="cls-9" d="M58,97.8s11.52,2.267,24-6.8C82,101.2,66,108.347,58,97.8Z"/></g></g></svg>