<svg xmlns="http://www.w3.org/2000/svg" viewBox="0 0 128 128"><defs><style>.cls-1{isolation:isolate;}.cls-2{mix-blend-mode:multiply;}.cls-3{fill:#e2b596;}.cls-4{fill:#ce8f7c;}.cls-5{fill:#966250;}.cls-6{fill:#3082e5;}.cls-7,.cls-8{fill:none;}.cls-7,.cls-8,.cls-9{stroke:#000;}.cls-12,.cls-7,.cls-8,.cls-9{stroke-linecap:round;stroke-linejoin:round;}.cls-7{stroke-width:4px;}.cls-8{stroke-width:2px;}.cls-10{font-size:24px;font-family:MuseoSansRounded-700, Museo Sans Rounded;}.cls-10,.cls-12{fill:#fff;}.cls-11{opacity:0.36;}.cls-12{stroke:#fff;}</style></defs><title>captain-america</title><g class="cls-1"><g id="icons" class="cls-2"><g id="_Group_" data-name="&lt;Group&gt;"><path class="cls-3" d="M79,87c5.96,3.21,13.19,4.53,19.26,5.01C95.71,106.91,86.13,112,64,112s-31.71-5.09-34.26-19.99c6.07-.48,13.3-1.8,19.26-5.01,6.41-3.45,6-12,15-12S72.59,83.55,79,87Z"/><path class="cls-4" d="M64,107c-28.366,0-38.846-9.08-39.9-31.078C24.03,77.97,24,80,24,82c0,24.853,10,35,40,35s40-10.147,40-35c0-2-.03-4.03-.1-6.078C102.846,97.92,92.366,107,64,107Z"/><path class="cls-5" d="M98.26,92.01c1.8.15,3.49.22,5.02.24C100.53,109.68,89.48,117,64,117s-36.53-7.32-39.28-24.75c1.53-.02,3.22-.09,5.02-.24C32.29,106.91,41.87,112,64,112S95.71,106.91,98.26,92.01Z"/><path class="cls-6" d="M98.26,92.01C92.19,91.53,84.96,90.21,79,87c-6.41-3.45-6-12-15-12s-8.59,8.55-15,12c-5.96,3.21-13.19,4.53-19.26,5.01-1.8.15-3.49.22-5.02.24A65.742,65.742,0,0,1,24,82c0-24.85,4-55,40-55s40,30.15,40,55a65.742,65.742,0,0,1-.72,10.25C101.75,92.23,100.06,92.16,98.26,92.01Z"/><path class="cls-7" d="M24.72,92.25A65.742,65.742,0,0,1,24,82c0-24.85,4-55,40-55s40,30.15,40,55a65.742,65.742,0,0,1-.72,10.25C100.53,109.68,89.48,117,64,117S27.47,109.68,24.72,92.25Z"/><path class="cls-8" d="M98.26,92v.01C95.71,106.91,86.13,112,64,112s-31.71-5.09-34.26-19.99V92"/><path class="cls-8" d="M24.72,92.25c1.53-.02,3.22-.09,5.02-.24,6.07-.48,13.3-1.8,19.26-5.01,6.41-3.45,6-12,15-12s8.59,8.55,15,12c5.96,3.21,13.19,4.53,19.26,5.01,1.8.15,3.49.22,5.02.24"/></g><path class="cls-9" d="M56.5,67.41c-2.942-3.17-15.692-6.339-20.6-4.226C32.963,74.806,46.693,86.429,56.5,67.41Z"/><path class="cls-9" d="M71.5,67.41c2.942-3.17,15.692-6.339,20.6-4.226C95.037,74.806,81.307,86.429,71.5,67.41Z"/><text class="cls-10" transform="translate(56.392 56)">A</text><path class="cls-9" d="M54.058,93A18.94,18.94,0,0,0,70,96.953C66.812,102.883,53,102.883,54.058,93Z"/><g class="cls-11"><path d="M52.916,101.223a14.548,14.548,0,0,0,1.705.963,16.077,16.077,0,0,0,1.847.723c.63.221,1.29.373,1.957.556s1.36.314,2.074.535l.021.006A.517.517,0,0,1,60.5,105a7.642,7.642,0,0,1-2.323.234,8.761,8.761,0,0,1-2.336-.429,7.708,7.708,0,0,1-2.152-1.113,4.942,4.942,0,0,1-1.6-1.914.5.5,0,0,1,.726-.624Z"/></g><circle class="cls-12" cx="46" cy="70" r="2.5"/><circle class="cls-12" cx="81" cy="70" r="2.5"/></g></g></svg>