<svg xmlns="http://www.w3.org/2000/svg" viewBox="0 0 128 128"><defs><style>.cls-1{isolation:isolate;}.cls-2{mix-blend-mode:multiply;}.cls-3{fill:#e33732;}.cls-4{fill:#af2e41;}.cls-5,.cls-8{fill:none;}.cls-5,.cls-6,.cls-8{stroke:#000;}.cls-5,.cls-6,.cls-7,.cls-8{stroke-linecap:round;stroke-linejoin:round;}.cls-5{stroke-width:4px;}.cls-7{fill:#fff;stroke:#fff;}.cls-8{stroke-width:2px;}</style></defs><title>deadpool</title><g class="cls-1"><g id="icons" class="cls-2"><path class="cls-3" d="M104,82c0,24.853-10,35-40,35S24,106.853,24,82s4-55,40-55S104,57.147,104,82Z"/><path class="cls-4" d="M64,107c-28.366,0-38.846-9.08-39.9-31.078C24.03,77.97,24,80,24,82c0,24.853,10,35,40,35s40-10.147,40-35c0-2-.03-4.03-.1-6.078C102.846,97.92,92.366,107,64,107Z"/><path class="cls-5" d="M104,82c0,24.853-10,35-40,35S24,106.853,24,82s4-55,40-55S104,57.147,104,82Z"/><path class="cls-6" d="M59.367,73.71,51.854,54.8a5.658,5.658,0,0,0-2.586-2.891L42.424,48.23a1.913,1.913,0,0,0-2.651.88C30.452,70.082,31.4,85.1,43.419,91.773a1.9,1.9,0,0,0,2-.125A44.338,44.338,0,0,0,59.313,75.214,1.86,1.86,0,0,0,59.367,73.71Z"/><path class="cls-7" d="M53.5,74.5c0,1-5,2-9,2-2,0-3-1-3-2,0-1.657,1.686-3,5-3S53.5,73.5,53.5,74.5Z"/><line class="cls-8" x1="41.13" y1="49.22" x2="39.08" y2="34.51"/><line class="cls-8" x1="45.04" y1="89.98" x2="42.23" y2="114.17"/><path class="cls-6" d="M68.633,73.71,76.146,54.8a5.658,5.658,0,0,1,2.586-2.891l6.844-3.677a1.913,1.913,0,0,1,2.651.88C97.548,70.082,96.6,85.1,84.581,91.773a1.9,1.9,0,0,1-2-.125A44.338,44.338,0,0,1,68.687,75.214,1.86,1.86,0,0,1,68.633,73.71Z"/><path class="cls-7" d="M74.5,74.5c0,1,5,2,9,2,2,0,3-1,3-2,0-1.657-1.686-3-5-3S74.5,73.5,74.5,74.5Z"/><line class="cls-8" x1="88.92" y1="34.51" x2="86.87" y2="49.22"/><line class="cls-8" x1="85.77" y1="114.17" x2="82.96" y2="89.98"/></g></g></svg>