<svg xmlns="http://www.w3.org/2000/svg" viewBox="0 0 127 127"><defs><style>.cls-1{isolation:isolate;}.cls-2{mix-blend-mode:multiply;}.cls-3{fill:#af2031;}.cls-4{fill:#84153d;}.cls-5{fill:#fff;}.cls-6{fill:#f2cb7c;}.cls-7,.cls-8,.cls-9{fill:none;stroke-linecap:round;stroke-linejoin:round;}.cls-7,.cls-8{stroke:#000;}.cls-7{stroke-width:4px;}.cls-8,.cls-9{stroke-width:2px;}.cls-9{stroke:#fff;}.cls-10{opacity:0.36;}</style></defs><title>ironman</title><g class="cls-1"><g id="icons" class="cls-2"><g id="_Group_" data-name="&lt;Group&gt;"><path class="cls-3" d="M76.86,28.19,72.68,45.73a1,1,0,0,1-.97.77H55.29a1,1,0,0,1-.97-.77L50.14,28.19A49.235,49.235,0,0,1,63.5,26.5,49.235,49.235,0,0,1,76.86,28.19Z"/><path class="cls-3" d="M92.46,37.9c9.53,11.04,11.04,28.32,11.04,43.6,0,24.85-10,35-40,35s-40-10.15-40-35c0-15.28,1.51-32.56,11.04-43.6V54.5c0,12-7.51,16,1.07,24,8.54,7.96,9.77,11.73,8.58,17-.45,2.01-1.8,4.24-2.69,7l6,5,7-5h5l2-2h4l2,2h5l7,5,5-5a68.207,68.207,0,0,1-1.69-7c-1.19-5.27.04-9.04,8.58-17,8.58-8,1.07-12,1.07-24Z"/><path class="cls-4" d="M63.5,106.5c-28.366,0-38.846-9.08-39.9-31.078-.066,2.047-.1,4.08-.1,6.078,0,24.853,10,35,40,35s40-10.147,40-35c0-2-.03-4.03-.1-6.078C102.346,97.42,91.866,106.5,63.5,106.5Z"/><path class="cls-5" d="M82.53,62.68c.04.33-.44.69-2.93,1.16s-6.06.86-6.1.52,3.45-1.26,5.94-1.72S82.49,62.34,82.53,62.68Z"/><path class="cls-6" d="M69.89,61.25l.61,5.25s9.13.91,15.18-.75a.985.985,0,0,0,.7-1.1L85.5,58.5A76.351,76.351,0,0,1,69.89,61.25Zm-12.78,0A76.351,76.351,0,0,1,41.5,58.5l-.88,6.15a.985.985,0,0,0,.7,1.1c6.05,1.66,15.18.75,15.18.75ZM92.46,54.5c0,12,7.51,16-1.07,24-8.54,7.96-9.77,11.73-8.58,17a68.207,68.207,0,0,0,1.69,7l-5,5-7-5h-5l-2-2h-4l-2,2h-5l-7,5-6-5c.89-2.76,2.24-4.99,2.69-7,1.19-5.27-.04-9.04-8.58-17-8.58-8-1.07-12-1.07-24V37.9a31.2,31.2,0,0,1,15.6-9.71l4.18,17.54a1,1,0,0,0,.97.77H71.71a1,1,0,0,0,.97-.77l4.18-17.54a31.2,31.2,0,0,1,15.6,9.71Z"/><path d="M85.68,65.75c-6.05,1.66-15.18.75-15.18.75l-.61-5.25A76.351,76.351,0,0,0,85.5,58.5l.88,6.15A.985.985,0,0,1,85.68,65.75ZM79.6,63.84c2.49-.47,2.97-.83,2.93-1.16s-.6-.51-3.09-.04-5.98,1.39-5.94,1.72S77.1,64.31,79.6,63.84Z"/><path class="cls-5" d="M47.56,62.64c2.49.46,5.98,1.39,5.94,1.72s-3.6-.05-6.1-.52-2.97-.83-2.93-1.16S45.07,62.17,47.56,62.64Z"/><path d="M56.5,66.5s-9.13.91-15.18-.75a.985.985,0,0,1-.7-1.1l.88-6.15a76.351,76.351,0,0,0,15.61,2.75Zm-9.1-2.66c2.5.47,6.06.86,6.1.52s-3.45-1.26-5.94-1.72-3.05-.3-3.09.04S44.91,63.37,47.4,63.84Z"/><path class="cls-7" d="M92.46,37.9c9.53,11.04,11.04,28.32,11.04,43.6,0,24.85-10,35-40,35s-40-10.15-40-35c0-15.28,1.51-32.56,11.04-43.6a31.2,31.2,0,0,1,15.6-9.71A49.235,49.235,0,0,1,63.5,26.5a49.235,49.235,0,0,1,13.36,1.69A31.2,31.2,0,0,1,92.46,37.9Z"/><path class="cls-8" d="M50.14,28.19l4.18,17.54a1,1,0,0,0,.97.77H71.71a1,1,0,0,0,.97-.77l4.18-17.54"/><path class="cls-8" d="M92.46,37.9V54.5c0,12,7.51,16-1.07,24-8.54,7.96-9.77,11.73-8.58,17a68.207,68.207,0,0,0,1.69,7l-5,5-7-5h-5l-2-2h-4l-2,2h-5l-7,5-6-5c.89-2.76,2.24-4.99,2.69-7,1.19-5.27-.04-9.04-8.58-17-8.58-8-1.07-12-1.07-24V37.9"/><path class="cls-8" d="M69.89,61.25c-1.96.16-3.1.25-5.39.25s-5.43-.09-7.39-.25"/><path class="cls-8" d="M57.11,61.25,56.5,66.5s-9.13.91-15.18-.75a.985.985,0,0,1-.7-1.1l.88-6.15A76.351,76.351,0,0,0,57.11,61.25Z"/><path class="cls-9" d="M53.5,64.36c-.04.34-3.6-.05-6.1-.52s-2.97-.83-2.93-1.16.6-.51,3.09-.04S53.54,64.03,53.5,64.36Z"/><path class="cls-8" d="M85.68,65.75c-6.05,1.66-15.18.75-15.18.75l-.61-5.25A76.351,76.351,0,0,0,85.5,58.5l.88,6.15A.985.985,0,0,1,85.68,65.75Z"/><path class="cls-9" d="M73.5,64.36c.04.34,3.6-.05,6.1-.52s2.97-.83,2.93-1.16-.6-.51-3.09-.04S73.46,64.03,73.5,64.36Z"/></g><g class="cls-10"><polyline class="cls-8" points="82.5 95.5 78.5 98.5 71.5 93.5 55.5 93.5 48.5 98.5 44.5 95.5"/><polyline class="cls-8" points="71.5 102.5 69.55 109.39 69.5 109.39 56.5 109.35 56.44 109.35 54.5 102.5"/><line class="cls-8" x1="56.5" y1="109.5" x2="51.12" y2="115.78"/><line class="cls-8" x1="74.98" y1="115.89" x2="69.5" y2="109.5"/></g></g></g></svg>