<svg xmlns="http://www.w3.org/2000/svg" viewBox="0 0 127 127"><defs><style>.cls-1{isolation:isolate;}.cls-2{mix-blend-mode:multiply;}.cls-3{fill:#e33732;}.cls-4{fill:#af2e41;}.cls-5{opacity:0.36;}.cls-6,.cls-9{fill:none;}.cls-6,.cls-7,.cls-9{stroke:#000;}.cls-6,.cls-7,.cls-8,.cls-9{stroke-linecap:round;stroke-linejoin:round;}.cls-6{stroke-width:2px;}.cls-8{fill:#fff;stroke:#fff;}.cls-9{stroke-width:4px;}</style></defs><title>spiderman</title><g class="cls-1"><g id="icons" class="cls-2"><path class="cls-3" d="M103.5,81.5c0,24.853-10,35-40,35s-40-10.147-40-35,4-55,40-55S103.5,56.647,103.5,81.5Z"/><path class="cls-4" d="M63.5,106.5c-28.366,0-38.846-9.08-39.9-31.078-.066,2.047-.1,4.08-.1,6.078,0,24.853,10,35,40,35s40-10.147,40-35c0-2-.03-4.03-.1-6.078C102.346,97.42,91.866,106.5,63.5,106.5Z"/><g class="cls-5"><line class="cls-6" x1="63.5" y1="89.62" x2="63.5" y2="26.62"/><path class="cls-6" d="M63.5,89.62c0-16.69,15.28-24.7,21.91-57.64"/><path class="cls-6" d="M41.59,31.98C48.22,64.92,63.5,72.93,63.5,89.62"/><path class="cls-6" d="M90.5,57.62a32.664,32.664,0,0,0,7.32-11.19"/><path class="cls-6" d="M29.18,46.43A32.664,32.664,0,0,0,36.5,57.62"/><path class="cls-6" d="M56.1,116.38c1.26-8.49,4.33-26.76,7.4-26.76s6.14,18.27,7.4,26.76"/><path class="cls-6" d="M68.5,89.62s13.25,8.57,16.35,24.34"/><path class="cls-6" d="M87.5,87.62s7.18,3.59,13.02,12.59"/><path class="cls-6" d="M93.5,75.62a20.893,20.893,0,0,0,9.7-4.46"/><path class="cls-6" d="M42.15,113.96C45.25,98.19,58.5,89.62,58.5,89.62"/><path class="cls-6" d="M26.48,100.21c5.84-9,13.02-12.59,13.02-12.59"/><path class="cls-6" d="M23.8,71.16a20.893,20.893,0,0,0,9.7,4.46"/><path class="cls-6" d="M47.5,75.62a15.153,15.153,0,0,0,7.621-8.569,6.661,6.661,0,0,0,8.379-3.1"/><path class="cls-6" d="M79.5,75.62a15.153,15.153,0,0,1-7.621-8.569,6.661,6.661,0,0,1-8.379-3.1"/><path class="cls-6" d="M63.5,105.62a7.5,7.5,0,0,1,6,3c8.3-4.663,14.181,1.158,14.181,1.158,2.181-9.842,12.5-15.158,12.5-15.158a18.145,18.145,0,0,1,7.319-13"/><path class="cls-6" d="M52.666,94.62A5.907,5.907,0,0,1,59.5,98.24a7.583,7.583,0,0,1,4-1.62,7.583,7.583,0,0,1,4,1.62,5.907,5.907,0,0,1,6.834-3.62"/><path class="cls-6" d="M55.5,85.62a10.8,10.8,0,0,0,8,4"/><path class="cls-6" d="M71.5,85.62a10.8,10.8,0,0,1-8,4"/><path class="cls-6" d="M38.5,62.62a15.448,15.448,0,0,0,10-8s10,1,15-4"/><path class="cls-6" d="M63.5,36.953c8,9.333,19.873,3.541,19.873,3.541C86.354,48.374,95.5,51.12,95.5,51.12s1,11.5,8,15.5"/><path class="cls-6" d="M88.5,62.62a15.448,15.448,0,0,1-10-8s-10,1-15-4"/><path class="cls-6" d="M63.5,105.62a7.5,7.5,0,0,0-6,3c-8.3-4.663-14.181,1.158-14.181,1.158-2.181-9.842-12.5-15.158-12.5-15.158a18.145,18.145,0,0,0-7.319-13"/><path class="cls-6" d="M63.5,36.953c-8,9.333-19.873,3.541-19.873,3.541C40.646,48.374,31.5,51.12,31.5,51.12s-1,11.5-8,15.5"/></g><path class="cls-7" d="M60,89.225C54.236,73.564,40.7,77.462,37.256,57,23.447,73.96,38.88,108.729,60,89.225Z"/><path class="cls-8" d="M49.135,91c-4.518,0-7.179-4.56-8.114-6.52A22.333,22.333,0,0,1,39.1,73c2.575,4.076,5.8,6.487,8.789,8.724,2.879,2.154,5.279,3.949,7.106,7.145A10.763,10.763,0,0,1,49.136,91Z"/><path class="cls-7" d="M67,89.225C72.764,73.564,86.3,77.462,89.744,57,103.553,73.96,88.12,108.729,67,89.225Z"/><path class="cls-8" d="M77.865,91c4.518,0,7.179-4.56,8.114-6.52A22.333,22.333,0,0,0,87.9,73c-2.575,4.076-5.8,6.487-8.789,8.724-2.879,2.154-5.279,3.949-7.106,7.145A10.763,10.763,0,0,0,77.864,91Z"/><path class="cls-9" d="M103.5,81.5c0,24.85-10,35-40,35s-40-10.15-40-35,4-55,40-55S103.5,56.65,103.5,81.5Z"/></g></g></svg>