<svg xmlns="http://www.w3.org/2000/svg" viewBox="0 0 127 127"><defs><style>.cls-1{isolation:isolate;}.cls-2{mix-blend-mode:multiply;}.cls-3{fill:#c3c7c9;}.cls-4{fill:#dcdfe2;}.cls-12,.cls-5{fill:#fff;}.cls-6{fill:#e2b596;}.cls-7{fill:#ce8f7c;}.cls-8{fill:#f2cb7c;}.cls-10,.cls-9{fill:none;}.cls-10,.cls-11,.cls-9{stroke:#000;}.cls-10,.cls-11,.cls-12,.cls-9{stroke-linecap:round;stroke-linejoin:round;}.cls-9{stroke-width:4px;}.cls-10{stroke-width:2px;}.cls-12{stroke:#fff;}.cls-13{opacity:0.36;}</style></defs><title>thor</title><g class="cls-1"><g id="icons" class="cls-2"><g id="_Group_" data-name="&lt;Group&gt;"><path class="cls-3" d="M98.74,51.62a65.859,65.859,0,0,1,2.58,11.17c-4.25-2.19-10.87-3.97-18.9-5.07A141.241,141.241,0,0,0,63.5,56.5a141.241,141.241,0,0,0-18.92,1.22c-8.05,1.1-14.68,2.89-18.93,5.09A64.645,64.645,0,0,1,28.2,51.64c7.77-3.11,20.68-5.14,35.3-5.14C78.08,46.5,90.97,48.52,98.74,51.62Z"/><path class="cls-4" d="M96.14,43.13l-.7.92a42.794,42.794,0,0,1,3.3,7.57c-7.77-3.1-20.66-5.12-35.24-5.12-14.62,0-27.53,2.03-35.3,5.14.46-1.41.99-2.78,1.57-4.12a38.259,38.259,0,0,1,1.75-3.51l-.66-.88C35.64,34.86,43.42,28.72,56.01,27a6.157,6.157,0,0,0,4.32-2.61c.01-.01.02-.02.02-.03a5,5,0,1,1,6.3,0l.02.03A6.157,6.157,0,0,0,70.99,27C83.58,28.72,91.36,34.86,96.14,43.13Z"/><path class="cls-5" d="M102.37,62.83c.03.19.05.39.07.58-.35-.22-.73-.42-1.12-.62a65.859,65.859,0,0,0-2.58-11.17,42.794,42.794,0,0,0-3.3-7.57l.7-.92L113.66,23.5s1.92,9.82-2.88,14.72c0,0,3.84-.98,6.72,0,0,0,0,4.91-5.76,7.86,0,0,2.88,1.96,4.8,6.87,0,0-3.84,3.92-7.68.98,0,0,2.88,2.94,1.92,8.83A12.383,12.383,0,0,1,102.37,62.83Z"/><path class="cls-5" d="M28.2,51.64a64.645,64.645,0,0,0-2.55,11.17c-.38.19-.75.39-1.09.6.02-.19.04-.39.07-.58a12.383,12.383,0,0,1-8.41-.07c-.96-5.89,1.92-8.83,1.92-8.83-3.84,2.94-7.68-.98-7.68-.98,1.92-4.91,4.8-6.87,4.8-6.87C9.5,43.13,9.5,38.22,9.5,38.22c2.88-.98,6.72,0,6.72,0-4.8-4.9-2.88-14.72-2.88-14.72L30.86,43.13l.66.88a38.259,38.259,0,0,0-1.75,3.51C29.19,48.86,28.66,50.23,28.2,51.64Z"/><path class="cls-6" d="M90.49,71.48A5.389,5.389,0,0,1,93.5,65.5s1.85,8.32,9.99,16.96c-.25,24.15-10.38,34.04-39.99,34.04s-39.74-9.89-39.99-34.04C31.65,73.82,33.5,65.5,33.5,65.5a5.389,5.389,0,0,1,3.01,5.98,31.808,31.808,0,0,0,8.07-13.76A141.241,141.241,0,0,1,63.5,56.5a141.241,141.241,0,0,1,18.92,1.22A31.808,31.808,0,0,0,90.49,71.48Z"/><path class="cls-7" d="M103.49,79V72.215c0,.239,0,.48-.01.715-.35,22.38-9.27,32.25-34.45,33.44-1.76.09-3.6.13-5.53.13a79.688,79.688,0,0,1-17.83-1.69C29.683,101.1,23.719,91.044,23.51,72.52v7.67c0,.44-.01.88-.01,1.31,0,19.18,5.89,29.53,22.17,33.31A79.688,79.688,0,0,0,63.5,116.5c1.93,0,3.77-.04,5.53-.13,25.18-1.19,34.1-11.06,34.45-33.44.02-.47.02-.95.02-1.43,0-.44-.01-.89-.01-1.33Z"/><path class="cls-8" d="M25.65,62.81c4.25-2.2,10.88-3.99,18.93-5.09a31.808,31.808,0,0,1-8.07,13.76A5.389,5.389,0,0,0,33.5,65.5s-1.85,8.32-9.99,16.96c-.01-.31-.01-.64-.01-.96a134.992,134.992,0,0,1,1.05-18.09h.01C24.9,63.2,25.27,63,25.65,62.81Z"/><path class="cls-8" d="M101.32,62.79c.39.2.77.4,1.12.62h.01A134.992,134.992,0,0,1,103.5,81.5c0,.32,0,.65-.01.96C95.35,73.82,93.5,65.5,93.5,65.5a5.389,5.389,0,0,0-3.01,5.98,31.808,31.808,0,0,1-8.07-13.76C90.45,58.82,97.07,60.6,101.32,62.79Z"/><path class="cls-9" d="M24.56,63.41c.02-.19.04-.39.07-.58a12.383,12.383,0,0,1-8.41-.07c-.96-5.89,1.92-8.83,1.92-8.83-3.84,2.94-7.68-.98-7.68-.98,1.92-4.91,4.8-6.87,4.8-6.87C9.5,43.13,9.5,38.22,9.5,38.22c2.88-.98,6.72,0,6.72,0-4.8-4.9-2.88-14.72-2.88-14.72L30.86,43.13C35.64,34.86,43.42,28.72,56.01,27a6.157,6.157,0,0,0,4.32-2.61c.01-.01.02-.02.02-.03a5,5,0,1,1,6.3,0l.02.03A6.157,6.157,0,0,0,70.99,27c12.59,1.72,20.37,7.86,25.15,16.13L113.66,23.5s1.92,9.82-2.88,14.72c0,0,3.84-.98,6.72,0,0,0,0,4.91-5.76,7.86,0,0,2.88,1.96,4.8,6.87,0,0-3.84,3.92-7.68.98,0,0,2.88,2.94,1.92,8.83a12.383,12.383,0,0,1-8.41.07c.03.19.05.39.07.58"/><path class="cls-9" d="M102.45,63.41A134.992,134.992,0,0,1,103.5,81.5c0,.32,0,.65-.01.96-.25,24.15-10.38,34.04-39.99,34.04s-39.74-9.89-39.99-34.04c-.01-.31-.01-.64-.01-.96a134.992,134.992,0,0,1,1.05-18.09"/><path class="cls-10" d="M24.55,63.41h.01c.34-.21.71-.41,1.09-.6,4.25-2.2,10.88-3.99,18.93-5.09A141.241,141.241,0,0,1,63.5,56.5a141.241,141.241,0,0,1,18.92,1.22c8.03,1.1,14.65,2.88,18.9,5.07.39.2.77.4,1.12.62h.01"/><path class="cls-10" d="M28.2,51.64c7.77-3.11,20.68-5.14,35.3-5.14,14.58,0,27.47,2.02,35.24,5.12"/><path class="cls-10" d="M25.58,63.24c.02-.14.04-.29.07-.43A64.645,64.645,0,0,1,28.2,51.64c.46-1.41.99-2.78,1.57-4.12a38.259,38.259,0,0,1,1.75-3.51"/><path class="cls-10" d="M95.44,44.05a42.794,42.794,0,0,1,3.3,7.57,65.859,65.859,0,0,1,2.58,11.17c.02.14.04.29.06.43"/><path class="cls-10" d="M36.5,71.5c.01-.01.01-.01.01-.02a31.808,31.808,0,0,0,8.07-13.76"/><path class="cls-10" d="M23.51,82.46C31.65,73.82,33.5,65.5,33.5,65.5a5.389,5.389,0,0,1,3.01,5.98"/><path class="cls-10" d="M90.5,71.5l-.01-.02a31.808,31.808,0,0,1-8.07-13.76"/><path class="cls-10" d="M103.49,82.46C95.35,73.82,93.5,65.5,93.5,65.5a5.389,5.389,0,0,0-3.01,5.98"/></g><circle class="cls-11" cx="48.5" cy="78.5" r="5.5"/><ellipse class="cls-12" cx="48.5" cy="78" rx="1.5" ry="2"/><circle class="cls-11" cx="78.5" cy="78.5" r="5.5"/><g class="cls-13"><path d="M45.276,68.053a7.032,7.032,0,0,1,2.9-1.145,7.182,7.182,0,0,1,3.189.191,6.684,6.684,0,0,1,2.79,1.588,7.251,7.251,0,0,1,1.033,1.184,9.675,9.675,0,0,1,.728,1.351.5.5,0,0,1-.764.607l-.068-.053c-.377-.291-.679-.625-1.023-.907a11.558,11.558,0,0,0-1.036-.783A7.662,7.662,0,0,0,50.8,69.011a8.225,8.225,0,0,0-2.469-.35,14.624,14.624,0,0,0-2.611.286l-.064.012a.5.5,0,0,1-.383-.907Z"/></g><g class="cls-13"><path d="M81.276,68.947a14.624,14.624,0,0,0-2.611-.286,8.225,8.225,0,0,0-2.469.35,7.662,7.662,0,0,0-2.221,1.076,11.558,11.558,0,0,0-1.036.783c-.344.282-.646.616-1.023.907l-.068.052a.5.5,0,0,1-.764-.607,9.675,9.675,0,0,1,.728-1.351,7.251,7.251,0,0,1,1.033-1.184,6.684,6.684,0,0,1,2.79-1.588,7.182,7.182,0,0,1,3.189-.191,7.032,7.032,0,0,1,2.9,1.145.5.5,0,0,1-.383.907Z"/></g><ellipse class="cls-12" cx="78.5" cy="78" rx="1.5" ry="2"/><path class="cls-11" d="M57,95.131s8.8,3.2,14.968-2.131C72.762,104.031,58.666,105.134,57,95.131Z"/><g class="cls-13"><path d="M61.207,105.545c.81.118,1.656.232,2.464.292a16.1,16.1,0,0,0,2.4,0,11.655,11.655,0,0,0,2.319-.4,19.069,19.069,0,0,0,2.3-.828l.054-.02a.507.507,0,0,1,.56.81,6.526,6.526,0,0,1-2.283,1.717,7.7,7.7,0,0,1-2.8.713,9.258,9.258,0,0,1-2.838-.245,7.843,7.843,0,0,1-2.591-1.124.506.506,0,0,1,.359-.918Z"/></g></g></g></svg>