<svg xmlns="http://www.w3.org/2000/svg" viewBox="0 0 128 128"><defs><style>.cls-1{isolation:isolate;}.cls-2{mix-blend-mode:multiply;}.cls-3{fill:#e2b596;}.cls-4{fill:#ce8f7c;}.cls-5{fill:#f2cd64;}.cls-6{fill:#d69743;}.cls-7{fill:#32353d;}.cls-8,.cls-9{fill:none;}.cls-11,.cls-8,.cls-9{stroke:#000;}.cls-11,.cls-12,.cls-8,.cls-9{stroke-linecap:round;stroke-linejoin:round;}.cls-8{stroke-width:4px;}.cls-9{stroke-width:2px;}.cls-10{opacity:0.36;}.cls-12{fill:#fff;stroke:#fff;}</style></defs><title>wolverine</title><g class="cls-1"><g id="icons" class="cls-2"><path class="cls-3" d="M60,93l4,2.33L68,93a67.2,67.2,0,0,0,30.94-8.04c-.72,20.44-9.29,31.63-33.57,32.03-.45.01-.91.01-1.37.01s-.92,0-1.37-.01c-24.28-.4-32.85-11.59-33.57-32.03A67.2,67.2,0,0,0,60,93Z"/><path class="cls-4" d="M104,82.03c0,.45,0,.91-.02,1.35-.02,1.07-.05,2.11-.11,3.12-.01.32-.03.63-.06.94-.05.75-.11,1.47-.19,2.19-.04.39-.09.78-.14,1.17-.07.57-.15,1.13-.24,1.69-.09.62-.2,1.22-.33,1.81s-.26,1.16-.4,1.73c-2.77,11.09-9.79,17.34-23.07,19.76-.38.07-.77.14-1.17.2-.6.1-1.2.19-1.83.28q-.24.03-.51.06l-.77.09c-.51.06-1.03.12-1.56.16s-1.06.1-1.6.14q-.7.06-1.44.09c-.44.03-.88.05-1.32.07-1.23.06-2.5.09-3.81.11h-.06c-.45.01-.91.01-1.37.01s-.92,0-1.37-.01h-.1c-.85-.01-1.69-.03-2.51-.06-.85-.02-1.68-.06-2.5-.11-1.02-.06-2.01-.14-2.98-.22s-1.9-.2-2.81-.31c-.37-.05-.74-.1-1.11-.16s-.72-.11-1.07-.17h-.02c-.41-.07-.81-.14-1.21-.21-.01,0-.01,0-.02-.01l-.16-.03c-.67-.13-1.34-.25-1.97-.4-.32-.07-.61-.17-.92-.24l-.33-.09c-.43-.11-.85-.23-1.27-.36s-.84-.26-1.25-.39l-.42-.15c-.38-.13-.75-.27-1.12-.41a25.019,25.019,0,0,1-8.81-5.51c-.29-.29-.57-.59-.85-.89s-.54-.62-.8-.93a1.068,1.068,0,0,0-.09-.11l-.66-.87c-.23-.33-.45-.65-.67-.99a.076.076,0,0,0-.02-.04c-.21-.33-.42-.67-.62-1.01a.467.467,0,0,0-.05-.1q-.3-.54-.57-1.08a22.433,22.433,0,0,1-1.05-2.39c-.2-.51-.39-1.03-.56-1.57-.19-.62-.38-1.26-.55-1.91-.16-.59-.3-1.19-.43-1.81-.03-.13-.06-.26-.08-.4-.08-.37-.15-.74-.21-1.12l-.03-.15c-.05-.32-.1-.64-.15-.97a.173.173,0,0,1-.01-.1c-.05-.29-.09-.57-.12-.86-.18-1.36-.31-2.79-.4-4.27-.03-.68-.06-1.37-.09-2.08v-.07c-.01-.35-.01-.7-.02-1.06-.02-.44-.02-.89-.02-1.35.25.16.5.32.76.48.94,5.86,2.84,10.55,5.9,14.2,3.52,4.18,8.57,6.99,15.51,8.6A79.688,79.688,0,0,0,64,107c1.93,0,3.77-.04,5.53-.13,13.64-.64,22.51-3.84,27.82-10.18,3.07-3.65,4.95-8.34,5.89-14.18V82.5C103.5,82.35,103.75,82.19,104,82.03Z"/><path class="cls-5" d="M62.53,116.99c-.85-.01-1.69-.03-2.51-.06-.85-.02-1.68-.06-2.5-.11q-3.06-.18-5.79-.53c-18.98-2.49-26.56-11.66-27.6-29.7-.03-.68-.06-1.37-.09-2.08v-.07c-.01-.35-.01-.7-.02-1.06a51.477,51.477,0,0,1-4.85-3A64.621,64.621,0,0,1,13,64.7c2.68,9.1,6.17,13.93,6.17,13.93A50.215,50.215,0,0,0,24,82.03c.25.16.5.32.76.48,1.25.77,2.69,1.6,4.3,2.45a52.287,52.287,0,0,0,1.6,11.75C34.12,109.64,43.47,116.65,62.53,116.99Z"/><path class="cls-5" d="M115,64.7a64.621,64.621,0,0,1-6.17,15.68,51.477,51.477,0,0,1-4.85,3c-.02,1.07-.05,2.11-.11,3.12-.01.32-.03.63-.06.94-.05.75-.11,1.47-.19,2.19-.04.39-.09.78-.14,1.17-.07.57-.15,1.13-.24,1.69-.1.61-.21,1.22-.33,1.81s-.26,1.16-.4,1.73c-2.8,11.03-9.81,17.31-23.07,19.76-.38.07-.77.14-1.17.2-.6.1-1.2.19-1.83.28q-.24.03-.51.06l-.77.09c-.51.06-1.03.12-1.56.16s-1.06.1-1.6.14q-.7.06-1.44.09c-.44.03-.88.05-1.32.07-1.23.06-2.5.09-3.81.11,19.1-.33,28.46-7.35,31.92-20.3a52.784,52.784,0,0,0,1.59-11.73c1.61-.85,3.05-1.68,4.3-2.45V82.5c.26-.15.51-.31.76-.47a50.215,50.215,0,0,0,4.83-3.4S112.32,73.8,115,64.7Z"/><path class="cls-5" d="M97.89,45.98A84.7,84.7,0,0,0,115.35,19a97.479,97.479,0,0,1,2.64,23.21A96.052,96.052,0,0,0,115.35,21C102.99,52.59,71.47,66.45,71.47,66.45L68,93l-4,2.33L60,93,56.53,66.45S25.01,52.59,12.65,21a96.052,96.052,0,0,0-2.64,21.21A97.479,97.479,0,0,1,12.65,19,84.7,84.7,0,0,0,30.11,45.98C35.53,34.92,45.56,27,64,27S92.47,34.92,97.89,45.98Z"/><path class="cls-6" d="M103.237,82.508c-.946,5.844-2.834,10.531-5.891,14.176-3.451,12.908-12.758,19.923-31.719,20.3l.23,0q.837-.012,1.652-.036.651-.019,1.288-.047c.4-.016.79-.033,1.178-.053s.74-.042,1.106-.066c.474-.031.945-.063,1.407-.1.254-.02.5-.042.755-.064.576-.052,1.145-.107,1.7-.17l.389-.044c20.781-2.441,28.333-12.54,28.647-33.02h0c.018-.443.019-.894.019-1.346C103.755,82.188,103.5,82.348,103.237,82.508Z"/><path class="cls-6" d="M30.658,96.7c-3.064-3.65-4.955-8.343-5.9-14.2-.258-.159-.512-.317-.754-.47,0,.454.006.9.013,1.343l.007,0c.337,21.969,9,31.994,33.39,33.433l.31.017q1.02.057,2.076.094l.555.017q.971.029,1.972.043h.137C43.448,116.63,34.118,109.619,30.658,96.7Z"/><path class="cls-7" d="M71.47,66.45,68,93a67.2,67.2,0,0,0,30.94-8.04A38.577,38.577,0,0,1,109,81a133.448,133.448,0,0,0,6-16.3,89.558,89.558,0,0,0,2.99-22.49A113.486,113.486,0,0,0,115.35,19C101.583,55,71.47,66.45,71.47,66.45Z"/><path class="cls-7" d="M56.53,66.45,60,93a67.2,67.2,0,0,1-30.94-8.04A38.577,38.577,0,0,0,19,81a133.448,133.448,0,0,1-6-16.3,89.558,89.558,0,0,1-2.99-22.49A113.486,113.486,0,0,1,12.65,19C26.417,55,56.53,66.45,56.53,66.45Z"/><path class="cls-8" d="M115.352,19A84.774,84.774,0,0,1,97.885,45.98C92.474,34.921,82.442,27,64,27S35.526,34.921,30.115,45.98A84.774,84.774,0,0,1,12.648,19c-8.609,36.69,6.526,61.379,6.526,61.379a50.862,50.862,0,0,0,4.843,3C24.391,107.218,34.565,117,64,117s39.609-9.782,39.982-33.623a50.862,50.862,0,0,0,4.843-3S123.961,55.69,115.352,19Z"/><polyline class="cls-9" points="60 93 64 95.333 68 93"/><path class="cls-9" d="M60,93,56.528,66.448S25.007,52.586,12.648,21c-8.609,36.69,6.526,57.629,6.526,57.629S36.394,93,60,93Z"/><path class="cls-9" d="M68,93l3.472-26.552S102.993,52.586,115.352,21c8.609,36.69-6.526,57.629-6.526,57.629S91.606,93,68,93Z"/><path class="cls-9" d="M29.06,84.96C29.79,105.78,38.67,117,64,117s34.21-11.22,34.94-32.04"/><g class="cls-10"><path d="M64.224,108.553a13.893,13.893,0,0,0,2.16.033,13.2,13.2,0,0,0,2.113-.327,16.52,16.52,0,0,0,2.077-.7c.348-.136.685-.31,1.043-.454.347-.166.692-.346,1.07-.494l.049-.019a.509.509,0,0,1,.576.8,10.957,10.957,0,0,1-.881.932,10,10,0,0,1-1.033.781,8.6,8.6,0,0,1-2.4,1.081,7.349,7.349,0,0,1-2.674.209,5.161,5.161,0,0,1-2.544-.947.5.5,0,0,1,.343-.9Z"/></g><path class="cls-11" d="M57,101.667S66.6,103.557,77,96C77,104.5,63.667,110.455,57,101.667Z"/><ellipse class="cls-11" cx="49" cy="81" rx="3.5" ry="5.5"/><ellipse class="cls-12" cx="49" cy="80" rx="1.5" ry="2.5"/><ellipse class="cls-11" cx="79" cy="81" rx="3.5" ry="5.5"/><ellipse class="cls-12" cx="79" cy="80" rx="1.5" ry="2.5"/></g></g></svg>